<svg width="32" height="32" viewBox="0 0 32 32" fill="none" xmlns="http://www.w3.org/2000/svg">
<rect width="32" height="32" fill="#D3EED2"/>
<path d="M20.14 7.84V8.24C19.8867 8.29333 19.6067 8.44667 19.3 8.7C18.9933 8.94 18.7467 9.36667 18.56 9.98L14.78 22.1C14.7533 22.1 14.7267 22.1 14.7 22.1C14.6733 22.1 14.6467 22.1 14.62 22.1C14.5933 22.1 14.5667 22.1 14.54 22.1C14.5133 22.1 14.4867 22.1 14.46 22.1L10.22 9.52C10.0467 9 9.85333 8.66 9.64 8.5C9.42667 8.34 9.22667 8.25333 9.04 8.24V7.84C9.28 7.85333 9.58 7.86667 9.94 7.88C10.3 7.89333 10.6467 7.9 10.98 7.9C11.5 7.9 11.9867 7.89333 12.44 7.88C12.8933 7.86667 13.26 7.85333 13.54 7.84V8.24C13.14 8.25333 12.82 8.29333 12.58 8.36C12.3533 8.42667 12.22 8.57333 12.18 8.8C12.1533 9.02667 12.22 9.4 12.38 9.92L15.36 19.14L15.08 19.38L17.72 11.08C17.96 10.3467 18.0667 9.78 18.04 9.38C18.0267 8.96667 17.88 8.68 17.6 8.52C17.32 8.34667 16.9 8.25333 16.34 8.24V7.84C16.7267 7.85333 17.12 7.86667 17.52 7.88C17.92 7.89333 18.2933 7.9 18.64 7.9C18.9867 7.9 19.2733 7.89333 19.5 7.88C19.7267 7.86667 19.94 7.85333 20.14 7.84ZM6.16 7.84V8.24C5.81333 8.26667 5.56 8.33333 5.4 8.44C5.25333 8.54667 5.18 8.72 5.18 8.96C5.19333 9.18667 5.26667 9.50667 5.4 9.92L8.5 19.38L8 19.88L10.8 10.94L11.1 11.42L7.8 22.1C7.77333 22.1 7.74667 22.1 7.72 22.1C7.69333 22.1 7.66667 22.1 7.64 22.1C7.61333 22.1 7.58667 22.1 7.56 22.1C7.53333 22.1 7.50667 22.1 7.48 22.1L3.24 9.52C3.06667 9 2.84667 8.66 2.58 8.5C2.31333 8.34 2.07333 8.25333 1.86 8.24V7.84C2.12667 7.85333 2.45333 7.86667 2.84 7.88C3.24 7.89333 3.62667 7.9 4 7.9C4.44 7.9 4.84667 7.89333 5.22 7.88C5.60667 7.86667 5.92 7.85333 6.16 7.84ZM21.4536 19.72C21.8003 19.72 22.1003 19.8467 22.3536 20.1C22.6069 20.3533 22.7336 20.6533 22.7336 21C22.7336 21.3467 22.6069 21.6467 22.3536 21.9C22.1003 22.1533 21.8003 22.28 21.4536 22.28C21.1069 22.28 20.8069 22.1533 20.5536 21.9C20.3003 21.6467 20.1736 21.3467 20.1736 21C20.1736 20.6533 20.3003 20.3533 20.5536 20.1C20.8069 19.8467 21.1069 19.72 21.4536 19.72ZM23.5727 25.76V25.38C24.1727 25.3667 24.6727 25.22 25.0727 24.94C25.486 24.66 25.7927 24.1933 25.9927 23.54C26.206 22.9 26.3127 22.04 26.3127 20.96V9.96C26.3127 9.46667 26.2727 9.10667 26.1927 8.88C26.1127 8.64 25.9527 8.48 25.7127 8.4C25.486 8.30667 25.146 8.25333 24.6927 8.24V7.84C24.9727 7.85333 25.3393 7.86667 25.7927 7.88C26.246 7.89333 26.7193 7.9 27.2127 7.9C27.706 7.9 28.1793 7.89333 28.6327 7.88C29.0993 7.86667 29.486 7.85333 29.7927 7.84V8.24C29.3393 8.25333 28.9927 8.30667 28.7527 8.4C28.526 8.48 28.3727 8.64 28.2927 8.88C28.2127 9.10667 28.1727 9.46667 28.1727 9.96V17.28C28.1727 17.8267 28.166 18.42 28.1527 19.06C28.1393 19.7 28.106 20.32 28.0527 20.92C28.0127 21.52 27.9393 22.0467 27.8327 22.5C27.606 23.4333 27.126 24.2067 26.3927 24.82C25.6727 25.4467 24.7327 25.76 23.5727 25.76Z" fill="black"/>
</svg>
