<svg xmlns="http://www.w3.org/2000/svg" fill="none" viewBox="0 0 36 36" id="Jest--Streamline-Svg-Logos" height="36" width="36">
  <desc>
    Jest Streamline Icon: https://streamlinehq.com
  </desc>
  <path fill="#99425b" d="M31.960987499999998 17.730674999999998c0 -1.812075 -1.46895 -3.2810249999999996 -3.2810999999999995 -3.2810249999999996 -0.11651249999999999 0 -0.23152499999999998 0.0062625 -0.34481249999999997 0.0181125L32.8415625 1.176315H13.6903875L18.1906125 14.456249999999999c-0.066 -0.0040125 -0.132375 -0.0066 -0.19934999999999997 -0.0066 -1.812075 0 -3.2810999999999995 1.46895 -3.2810999999999995 3.2810249999999996 0 1.4647875 0.959925 2.7047999999999996 2.2848 3.1266749999999996 -0.6997500000000001 1.2121125 -1.5802500000000002 2.303775 -2.5799250000000002 3.246975 -1.3593374999999999 1.2823875 -2.9150625000000003 2.254725 -4.5977250000000005 2.853975 -2.00325 -1.02915 -2.9493375 -3.3178875 -2.09565 -5.3246625 0.0963 -0.22665000000000002 0.1948125 -0.45630000000000004 0.2887875 -0.6850125 1.4514 -0.3387 2.532825 -1.6397625 2.532825 -3.1943625 0 -1.812075 -1.46895 -3.2810249999999996 -3.2810999999999995 -3.2810249999999996 -1.812075 0 -3.2810999999999995 1.46895 -3.2810999999999995 3.2810249999999996 0 1.1112 0.5529 2.0926875 1.3980000000000001 2.6862375 -0.8120625000000001 1.8490125 -2.00582625 3.7840875 -2.37772875 6.0268875 -0.44570624999999997 2.6878875 -0.0014437500000000002 5.5409625 2.32324125 7.1522250000000005 5.4140250000000005 3.7523625 11.290912500000001 -2.3262 17.4873 -3.8542125 2.2456875 -0.5538 4.710675 -0.46454999999999996 6.6892125 -1.6104375000000002 1.4857500000000001 -0.8605875000000001 2.46525 -2.2866375 2.7432374999999998 -3.8877375 0.2746125 -1.5816750000000002 -0.1257375 -3.1564875 -1.046475 -4.4334 0.47621250000000004 -0.56955 0.763125 -1.302675 0.763125 -2.10315Z" stroke-width="0.375"></path>
  <path fill="#ffffff" d="M31.4544375 24.130087500000002c-0.24134999999999998 1.389975 -1.0998375 2.6041875 -2.355375 3.3313875 -1.170375 0.6778500000000001 -2.572875 0.8802 -4.0577625 1.094325 -0.7954875000000001 0.114675 -1.61805 0.23336249999999997 -2.4216375 0.4315125 -2.1247875 0.5239125 -4.1827875 1.5461999999999998 -6.1729875000000005 2.5347375 -3.9829125000000003 1.9783499999999998 -7.422600000000001 3.6866624999999997 -10.6659375 1.4388750000000001 -2.3757562500000002 -1.6465875 -2.26605 -4.6930499999999995 -1.9892625000000002 -6.362475 0.2565 -1.5466875 0.9499875 -2.97105 1.6206375 -4.348649999999999 0.115875 -0.2381625 0.229425 -0.4719 0.3399375 -0.70365 0.3323625 0.1327875 0.68595 0.22338750000000002 1.0544625 0.2646 -0.68265 2.2529625 0.3909 4.7026875 2.644275 5.860275l0.3083625 0.1584375 0.326625 -0.11628749999999999c1.7814 -0.634425 3.4228499999999995 -1.6524375 4.878825 -3.0260999999999996 0.9410999999999999 -0.8878875 1.7502749999999998 -1.8701625 2.4153000000000002 -2.9197499999999996 0.1993875 0.0300375 0.40331249999999996 0.045825000000000005 0.61095 0.045825000000000005 2.0681249999999998 0 3.7807500000000003 -1.546125 4.045725 -3.5429625000000002 0.8465624999999999 -0.0310125 1.7457375000000002 -0.031275 2.597175 -0.0003375 0.26482500000000003 1.997025 1.9775625000000001 3.5433000000000003 4.045725 3.5433000000000003 0.86475 0 1.666875 -0.2710125 2.3276624999999997 -0.7313999999999999 0.45877500000000004 0.9391125 0.63 1.9957500000000001 0.44730000000000003 3.0483374999999997ZM7.2617625 15.2745c1.3674 0 2.4797625 1.1124375 2.4797625 2.4797625 0 0.4911375 -0.144075 0.949125 -0.3915375 1.3348125 -0.41231249999999997 0.642825 -1.1127375 1.0834875 -1.9178625 1.1384625 -0.056325 0.0038250000000000003 -0.1130625 0.0064875 -0.1703625 0.0064875 -0.3046875 0 -0.5965875 -0.055612499999999995 -0.866475 -0.1564875 -0.5459625 -0.20437500000000003 -1.000875 -0.5960624999999999 -1.2870375 -1.0962375 -0.20715 -0.3621375 -0.32625 -0.7808249999999999 -0.32625 -1.2270375 0 -1.367325 1.1124375 -2.4797625 2.4797625 -2.4797625Zm8.249325 2.4562125c0 -1.2423375 0.9183375 -2.2738875 2.1117 -2.4522749999999998 0.12011249999999998 -0.018037499999999998 0.24307499999999999 -0.0274875 0.3680625 -0.0274875 0.7949250000000001 0 1.5027 0.37665 1.9566374999999998 0.9601875000000001 0.11283750000000001 0.1449375 0.210675 0.30225 0.2894625 0.47021250000000003 0.14958749999999998 0.3189375 0.2336625 0.6744 0.2336625 1.0493625 0 0.19826249999999998 -0.024037500000000003 0.39097499999999996 -0.06821250000000001 0.57585 -0.2416875 1.0116749999999999 -1.1042999999999998 1.7848875 -2.16135 1.8913125 -0.08223749999999999 0.00825 -0.16575 0.0126 -0.2502 0.0126 -0.49507500000000004 0 -0.9563249999999999 -0.1464 -1.343925 -0.3973875 -0.6827624999999999 -0.442275 -1.1358375 -1.2102 -1.1358375 -2.082375Zm10.3495875 -2.9487c-0.5312250000000001 0.508275 -0.9262874999999999 1.1577000000000002 -1.1230125 1.887975 -0.9182625 -0.0344625 -1.89195 -0.0344625 -2.804925 0 -0.2097 -0.7783500000000001 -0.6446625 -1.4650124999999998 -1.2297375000000001 -1.9866375l2.5659 -5.1884250000000005 2.591775 5.2870875ZM14.8077 1.9776824999999998h16.9156125L27.7280625 13.7611125c-0.173175 0.0415875 -0.3421125 0.09390000000000001 -0.5060625 0.156825l-3.9467624999999997 -8.05125 -3.9579375000000003 8.0031375c-0.171075 -0.058875 -0.3473625 -0.10631249999999999 -0.5278125 -0.1423125L14.8077 1.9776824999999998ZM31.159237500000003 17.7307125c0 0.2486625 -0.0372 0.4886625 -0.105525 0.715275 -0.16286250000000002 0.5391375 -0.504525 1.0011 -0.9557625000000001 1.317 -0.4023 0.2815875 -0.8912625000000001 0.44748750000000004 -1.418475 0.44748750000000004 -1.14495 0 -2.1108000000000002 -0.7802625000000001 -2.3947125000000002 -1.8369375000000001 -0.0551625 -0.205125 -0.08505 -0.420525 -0.08505 -0.642825 0 -0.3389625 0.0685125 -0.6621375 0.19218749999999998 -0.9566625 0.06367500000000001 -0.1517625 0.143175 -0.2952 0.23445 -0.429975 0.44628749999999995 -0.6586125 1.1993625 -1.0931250000000001 2.0531249999999996 -1.0931250000000001 0.07830000000000001 0 0.15555 0.0040875 0.23197500000000001 0.0112125 1.2589875 0.11733750000000001 2.2477875000000003 1.1794125 2.2477875000000003 2.46855Zm1.6026749999999998 0c0 -1.9930875 -1.4359875 -3.6560625 -3.3274125000000003 -4.011374999999999L33.95895 0.375h-21.386625l4.53135 13.371525000000002c-1.8257624999999997 0.40627499999999994 -3.1952625 2.0377875 -3.1952625 3.9841875 0 1.4614875 0.772425 2.7453000000000003 1.9299374999999999 3.4666875 -0.5567624999999999 0.8295375 -1.2170625 1.6101375 -1.973625 2.3239875000000003 -1.2000000000000002 1.13205 -2.5368 1.9905 -3.978 2.5554 -1.451625 -0.91185 -2.0653125 -2.63145 -1.428 -4.129575l0.0499125 -0.1174125c0.031275 -0.0733125 0.0625125 -0.14677500000000002 0.093675 -0.220275 1.5944625000000001 -0.556125 2.7418875 -2.0737125 2.7418875 -3.8552625 0 -2.251125 -1.8313875 -4.0824375 -4.0824375 -4.0824375S3.1793249999999995 15.503137500000001 3.1793249999999995 17.754262500000003c0 1.1362125 0.46702125 2.1651375 1.218675 2.9059875 -0.1362375 0.290325 -0.279675 0.5856375 -0.42686250000000003 0.8879625 -0.68723625 1.411575 -1.46614125 3.0114375 -1.760715 4.7880375 -0.58506 3.5282999999999998 0.35868 6.3487875 2.65734 7.9419375C6.262649999999999 35.244937500000006 7.6791 35.625 9.104625 35.625c2.6841749999999998 0 5.3993625000000005 -1.3485 8.055 -2.6676 1.912575 -0.9499125 3.8902875000000003 -1.9322625000000002 5.843775 -2.414025 0.7268249999999999 -0.17925 1.4747999999999999 -0.28713750000000005 2.2666875 -0.40132500000000004 1.5702374999999997 -0.2265375 3.1939875000000004 -0.46068749999999997 4.632225 -1.2936750000000001 1.6672125 -0.9657 2.8084875 -2.58555 3.131175 -4.4440875 0.2770125 -1.5955500000000002 -0.056325 -3.1936500000000003 -0.8694374999999999 -4.5489 0.3790125 -0.61935 0.5978625 -1.3468875 0.5978625 -2.124675Z" stroke-width="0.375"></path>
</svg>