<svg xmlns="http://www.w3.org/2000/svg" fill="none" viewBox="0 0 36 36" id="Playwright--Streamline-Svg-Logos" height="36" width="36">
  <desc>
    Playwright Streamline Icon: https://streamlinehq.com
  </desc>
  <path fill="#2d4552" d="M11.993775 19.712587499999998c-1.315875 0.37346250000000003 -2.1791625 1.0282125 -2.74785 1.6824750000000002 0.5446875 -0.4766625 1.2742875 -0.9141375 2.2585125 -1.1931375000000002 1.00665 -0.2853 1.8654375 -0.2832375 2.57505 -0.14632499999999998v-0.5548875c-0.605325 -0.05535 -1.2993375 -0.01125 -2.0857124999999996 0.21187499999999998Zm-2.8080000000000003 -4.6646625 -4.886925 1.2874875000000001s0.08906249999999999 0.1258125 0.25395 0.2936625l4.143525 -1.0918125s-0.058725 0.7565999999999999 -0.5686125 1.4334c0.9645 -0.7297125 1.0580625 -1.9227375 1.0580625 -1.9227375Zm4.0906875 11.485125C6.3992249999999995 28.3853625 2.76072375 20.415375 1.6591312499999997 16.278637500000002c-0.50895 -1.9095 -0.7311225 -3.35565 -0.79033875 -4.2889124999999995 -0.00636375 -0.09690000000000001 -0.0034237499999999997 -0.178575 0.0034275 -0.253425 -0.3567525 0.021525 -0.5275522500000001 0.2069625 -0.49280250000000003 0.7428750000000001 0.05921625 0.9327375 0.28139250000000005 2.3788125 0.7903425 4.2889124999999995C2.27086125 20.9041875 5.9098500000000005 28.874175 12.787125 27.021900000000002c1.496925 -0.40327499999999994 2.6215125 -1.1377875 3.4657124999999995 -2.0754375 -0.7781250000000001 0.7027875 -1.7519999999999998 1.25625 -2.976375 1.5865875Zm1.2923624999999999 -16.362825v0.48944999999999994h2.6975249999999997c-0.05535 -0.1732875 -0.1111125 -0.3294375 -0.1664625 -0.48944999999999994h-2.5310625Z" stroke-width="0.375"></path>
  <path fill="#2d4552" d="M17.86935 14.201025c1.213125 0.3445125 1.85475 1.19505 2.1938625 1.94775l1.3526250000000002 0.38415s-0.1845 -2.6342625 -2.5672875 -3.3110999999999997c-2.2291125000000003 -0.6333375 -3.6008625 1.23855 -3.7677 1.4808 0.64845 -0.46199999999999997 1.5953624999999998 -0.840225 2.7885 -0.5015999999999999Zm10.767262500000001 1.9599c-2.2311375 -0.6361874999999999 -3.6023625 1.2396 -3.7667625000000005 1.4784375 0.6489375 -0.46143749999999994 1.5953624999999998 -0.8398125000000001 2.787975 -0.49965000000000004 1.211175 0.345075 1.8522750000000001 1.1945625 2.1924375 1.9477875l1.354575 0.385575s-0.1875 -2.6347875 -2.568225 -3.31215Zm-1.34385 6.945749999999999 -11.2522125 -3.1456875s0.12179999999999999 0.6175875 0.5892 1.417275l9.47385 2.6485125000000003c0.7799624999999999 -0.451275 1.1891625000000001 -0.9200999999999999 1.1891625000000001 -0.9200999999999999ZM19.4915625 29.8777125C10.5820125 27.489 11.659125 16.137037499999998 13.1008125 10.757737500000001c0.5935874999999999 -2.21685 1.2038625 -3.8645625 1.7099250000000001 -4.9690875 -0.30195 -0.0621375 -0.5520375 0.09690000000000001 -0.7991625 0.599475 -0.5373375 1.0898625 -1.22445 2.864325 -1.8894375 5.3484 -1.441275 5.3791875000000005 -2.5184249999999997 16.730775 6.390750000000001 19.1194875 4.199325 1.125 7.4707125 -0.5848500000000001 9.909375 -3.2700750000000003 -2.3147625 2.0965499999999997 -5.2701375 3.2719875000000003 -8.9307 2.291775Z" stroke-width="0.375"></path>
  <path fill="#e2574c" d="M14.5689 23.8727625V21.582l-6.364762499999999 1.8048000000000002s0.47028749999999997 -2.732625 3.7897125000000003 -3.67425c1.00665 -0.2853 1.86555 -0.28335 2.57505 -0.14632499999999998V10.1701875h3.1868625c-0.3469875 -1.0722375 -0.68265 -1.8977249999999999 -0.964575 -2.471325 -0.4663875 -0.9493874999999999 -0.9444750000000001 -0.320025 -2.029875 0.5877749999999999 -0.764475 0.6386625 -2.6965125 2.001075 -5.6038499999999996 2.784525 -2.9074125 0.7839375 -5.257875 0.5760375 -6.23859 0.4062 -1.39032375 -0.23984999999999998 -2.11753875 -0.545175 -2.04950625 0.512325 0.059204999999999994 0.9327375 0.28139250000000005 2.3789249999999997 0.79033875 4.2889124999999995C2.7607987499999997 20.4148125 6.3997874999999995 28.384800000000002 13.277025 26.532525c1.7964375 -0.48405 3.064425 -1.4407874999999999 3.9433499999999997 -2.66025h-2.651475v0.0004875ZM4.2984375 16.335375l4.8874125 -1.2874875000000001s-0.1424625 1.880175 -1.974675 2.363175c-1.8327 0.4825125 -2.9127375 -1.0756875 -2.9127375 -1.0756875Z" stroke-width="0.375"></path>
  <path fill="#2ead33" d="M32.9626125 10.27875c-1.270425 0.22271249999999998 -4.318312499999999 0.500175 -8.0849625 -0.5094375 -3.7677 -1.0090125 -6.267525 -2.7737625 -7.257937500000001 -3.6032625000000005 -1.4040000000000001 -1.1759625 -2.0215875 -1.9932374999999998 -2.6293875 -0.75705 -0.5373375 1.0903125 -1.2244875 2.8648125 -1.8895875 5.3488875 -1.4411625000000001 5.3791875000000005 -2.518275 16.730775 6.3907875 19.11945 8.907187500000001 2.3866875 13.649175 -7.9832624999999995 15.09045 -13.362937500000001 0.6651 -2.4835874999999996 0.9567375 -4.36425 1.0369875 -5.5768875 0.0915 -1.3736625 -0.8520375 -0.974925 -2.6563499999999998 -0.6587624999999999ZM15.0627 14.729175s1.4040000000000001 -2.183625 3.7852875 -1.506825c2.3827875 0.6768375 2.5672875 3.3111375 2.5672875 3.3111375l-6.352575 -1.8043125ZM20.8755 24.528c-4.188525 -1.2269625 -4.8345 -4.566974999999999 -4.8345 -4.566974999999999l11.2516875 3.1458c0 -0.000525 -2.27115 2.6327625 -6.417187500000001 1.421175Zm3.97815 -6.864075000000001s1.40205 -2.182125 3.7828875 -1.5033750000000001c2.3807625 0.6778500000000001 2.568225 3.31215 2.568225 3.31215l-6.351112499999999 -1.8087750000000002Z" stroke-width="0.375"></path>
  <path fill="#d65348" d="M12.344850000000001 22.212787499999997 8.20425 23.386312500000003s0.44977500000000004 -2.5623375 3.500025 -3.5777624999999995l-2.3446125 -8.7989625 -0.2026125 0.061575000000000005c-2.907375 0.7840500000000001 -5.2578375 0.5760375 -6.238544999999999 0.4062 -1.3903162500000001 -0.2397375 -2.1175275 -0.545175 -2.04950625 0.5124375 0.05921625 0.9327375 0.28139250000000005 2.3788125 0.79033875 4.288875 1.10110125 4.1361375 4.7401125 12.106125 11.6173125 10.25385l0.2026125 -0.0636375 -1.1344125 -4.2561ZM4.29855 16.33545l4.8874125 -1.2875625s-0.1424625 1.880175 -1.9746375 2.363175c-1.8327375 0.4825125 -2.912775 -1.0756125 -2.912775 -1.0756125Z" stroke-width="0.375"></path>
  <path fill="#1d8d22" d="m21.064425 24.5739375 -0.18945 -0.04605c-4.1884875 -1.22685 -4.8345 -4.5668625 -4.8345 -4.5668625l5.802075 1.6218 3.0717375000000002 -11.803725 -0.0371625 -0.009787500000000001c-3.7677 -1.0090125 -6.267375 -2.7737625 -7.257937500000001 -3.6032625000000005 -1.4040000000000001 -1.1759625 -2.0215875 -1.9932374999999998 -2.6293875 -0.75705 -0.5368125 1.0903125 -1.2239625 2.8648125 -1.8890624999999999 5.3488875 -1.4411625000000001 5.3791875000000005 -2.518275 16.730775 6.3907875 19.119374999999998l0.1825875 0.0411375 1.3903125 -5.3444625ZM15.0627 14.729212500000001s1.4040000000000001 -2.1836625 3.7852875 -1.5068625c2.3827875 0.6768375 2.5672875 3.3111375 2.5672875 3.3111375l-6.352575 -1.804275Z" stroke-width="0.375"></path>
  <path fill="#c04b41" d="m12.555824999999999 22.15245 -1.1104125 0.31515000000000004c0.2623125 1.47885 0.7246875 2.898075 1.4504625 4.15185 0.1263 -0.027899999999999998 0.2515875 -0.051862500000000006 0.38025 -0.08711250000000001 0.3372 -0.090975 0.649875 -0.203625 0.950925 -0.326475 -0.8109 -1.2033375 -1.3473375 -2.5892625000000002 -1.671225 -4.0534125Zm-0.43361250000000007 -10.41585c-0.5706 2.1297375 -1.0810875 5.195175 -0.9405749999999999 8.269875 0.25151249999999997 -0.10916250000000001 0.5172 -0.2108625 0.812325 -0.2946l0.205575 -0.0459375c-0.2506125 -3.2842875000000005 0.2911125 -6.63105 0.9013875 -8.908125 0.15468749999999998 -0.5760375 0.3097875 -1.1118375 0.4644 -1.6115249999999999 -0.24903750000000002 0.1585125 -0.5172 0.3209625 -0.8226375000000001 0.488325 -0.2059875 0.635775 -0.41400000000000003 1.3306875 -0.620475 2.1019875Z" stroke-width="0.375"></path>
</svg>