<svg xmlns="http://www.w3.org/2000/svg" fill="none" viewBox="0 0 36 36" id="React-Router--Streamline-Svg-Logos" height="36" width="36">
  <desc>
    React Router Streamline Icon: https://streamlinehq.com
  </desc>
  <path fill="#000000" d="M11.1243 21.1490625c1.764975 0 3.1957500000000003 -1.430775 3.1957500000000003 -3.1957500000000003s-1.430775 -3.1957500000000003 -3.1957500000000003 -3.1957500000000003c-1.7649375 0 -3.1957125 1.430775 -3.1957125 3.1957500000000003s1.430775 3.1957500000000003 3.1957125 3.1957500000000003ZM3.5707424999999997 27.540525000000002c1.764945 0 3.1957575 -1.430775 3.1957575 -3.1957125 0 -1.764975 -1.4308125 -3.1957500000000003 -3.1957575 -3.1957500000000003C1.8057824999999998 21.1490625 0.375 22.5798375 0.375 24.3448125c0 1.7649375 1.4307825 3.1957125 3.1957424999999997 3.1957125Zm28.858507499999998 0c1.764975 0 3.1957500000000003 -1.430775 3.1957500000000003 -3.1957125 0 -1.764975 -1.430775 -3.1957500000000003 -3.1957500000000003 -3.1957500000000003 -1.7649375 0 -3.1957500000000003 1.430775 -3.1957500000000003 3.1957500000000003 0 1.7649375 1.4308125 3.1957125 3.1957500000000003 3.1957125Z" stroke-width="0.375"></path>
  <path fill="#d0021b" d="M21.9333375 18.0879375c-0.10218750000000001 -1.0676625 -0.1542 -1.9563375 -0.9721500000000001 -2.5808999999999997 -1.0358625000000001 -0.7909875000000001 -2.2092 -0.2777625 -3.6545625 -0.799425 -1.4202 -0.343575 -2.4736125 -1.6045500000000001 -2.4736125 -3.1075125 0 -1.7672999999999999 1.4565375 -3.1999500000000003 3.2532375 -3.1999500000000003 1.330725 0 2.47485 0.7858875 2.9787749999999997 1.9115625 0.7713 1.4650124999999998 0.2700375 2.955975 1.239075 3.7069875000000003 1.1474625 0.8892375000000001 2.6944125000000003 0.23801250000000002 4.4205749999999995 1.0805625 0.554625 0.25485 1.0240875 0.6591 1.3549125000000002 1.1601 0.3307875 0.501 0.5229375 1.0987500000000001 0.5229375 1.740675 0 1.5029625000000002 -1.0534124999999999 2.7639 -2.4736125 3.107475 -1.445325 0.5217 -2.6187 0.008475 -3.6545625 0.7994625 -1.164825 0.8894625 -0.5412375 2.3775 -1.4905875 3.949425 -0.5388375000000001 1.035075 -1.6340625 1.743525 -2.8975125 1.743525 -1.7967 0 -3.2532375 -1.4326875000000001 -3.2532375 -3.1999875 0 -1.2837749999999999 0.7686 -2.391 1.8778875 -2.9007375 1.726125 -0.8425499999999999 3.2730749999999995 -0.1913625 4.4205375 -1.0806 0.66195 -0.513 0.8019 -1.3043624999999999 0.8019 -2.3306625Z" stroke-width="0.375"></path>
</svg>