<svg xmlns="http://www.w3.org/2000/svg" fill="none" viewBox="0 0 36 36" id="React-Query-Icon--Streamline-Svg-Logos" height="36" width="36">
  <desc>
    React Query Icon Streamline Icon: https://streamlinehq.com
  </desc>
  <path fill="#00435b" d="m22.12815 21.833175 -0.676125 1.1741249999999999c-0.2037 0.3536625 -0.5807625 0.57165 -0.9889125000000001 0.57165H15.2833875c-0.40815 0 -0.7852125000000001 -0.2179875 -0.9889125000000001 -0.57165l-0.6761999999999999 -1.1741249999999999h8.509875000000001Zm1.892925 -3.2867999999999995 -1.1922375 2.0701125h-9.911249999999999l-1.1921625 -2.0701125h12.295650000000002Zm-1.1484375 -3.2140874999999998 1.15035 1.9974750000000001H11.7235125l1.1503125 -1.9974750000000001h9.9988125Zm-2.409525 -3.0383999999999998c0.40815 0 0.7852125000000001 0.2179875 0.9889125000000001 0.57165l0.7199249999999999 1.2500624999999999H13.5745125l0.7199625 -1.2500624999999999c0.2037 -0.3536625 0.5807625 -0.57165 0.9889125000000001 -0.57165h5.1797249999999995Z" stroke-width="0.375"></path>
  <path fill="#002b3b" d="M7.744837499999999 11.7492375c-0.5737875 -2.7822750000000003 -0.6969000000000001 -4.91625 -0.326025 -6.4657875 0.22057499999999997 -0.9216 0.62385 -1.6734225 1.2370875000000001 -2.21584875 0.6474 -0.57265875 1.4659125 -0.853665 2.3856 -0.853665 1.5172500000000002 0 3.1122000000000005 0.691875 4.816725 2.00623875 0.69525 0.5361374999999999 1.416825 1.1823375 2.1661875000000004 1.9389750000000001 0.05966249999999999 -0.07680000000000001 0.1270875 -0.1492125 0.2022 -0.21615 2.1186375 -1.8880124999999999 3.9023250000000003 -3.0610350000000004 5.4279375000000005 -3.5133225 0.907125 -0.2689275 1.7588249999999999 -0.29455125 2.5343999999999998 -0.03354375 0.8186625000000001 0.27550874999999997 1.4709750000000001 0.8450212500000001 1.9312125 1.6427287499999998 0.759525 1.3165125 0.9598125 3.0464249999999997 0.67665 5.1823875 -0.115425 0.8706375 -0.31275 1.8190499999999998 -0.5915625 2.846625 0.10518750000000002 0.0127125 0.21063749999999998 0.0360375 0.31503749999999997 0.0706125 2.688075 0.890775 4.5915 1.8487125 5.743875 2.9434875000000003 0.68565 0.6513375 1.1333625 1.376475 1.2952124999999999 2.1791625 0.17085 0.8472375000000001 0.004275 1.6970625 -0.45539999999999997 2.4941625 -0.7581375 1.3146 -2.1520875 2.3514375000000003 -4.137975 3.17265 -0.7973999999999999 0.3297375 -1.6996125000000002 0.6283875 -2.70765 0.897 0.0460125 0.1038375 0.081675 0.21412499999999998 0.10556249999999999 0.32985000000000003 0.5737875 2.7822375 0.6969000000000001 4.9162125 0.326025 6.4657875 -0.22057499999999997 0.9216 -0.6238874999999999 1.6734 -1.2370875000000001 2.2158375 -0.6474 0.5726625 -1.4659125 0.85365 -2.3856375 0.85365 -1.5172124999999999 0 -3.1122000000000005 -0.691875 -4.816725 -2.0062499999999996 -0.7026375 -0.5418000000000001 -1.4321625 -1.1960625 -2.1901125 -1.9631250000000002 -0.078 0.1219875 -0.1737375 0.23535 -0.2869875 0.33630000000000004 -2.1186375 1.887975 -3.9023250000000003 3.0610124999999995 -5.4279375000000005 3.5133 -0.907125 0.2689125 -1.7588249999999999 0.294525 -2.5343999999999998 0.033525 -0.8186625000000001 -0.2755125 -1.4709750000000001 -0.845025 -1.9312125 -1.642725 -0.759525 -1.3165125 -0.9598125 -3.0463875 -0.67665 -5.1823875 0.11958750000000001 -0.9021000000000001 0.3271125 -1.8877125000000001 0.6220875 -2.958375 -0.115275 -0.0116625 -0.23107499999999997 -0.0360375 -0.3455625 -0.0739875 -2.688075 -0.8908125 -4.5914962500000005 -1.84875 -5.7438825 -2.9434875000000003 -0.6856387500000001 -0.6513375 -1.13337 -1.376475 -1.29522 -2.1791625 -0.170836125 -0.8472375000000001 -0.00426 -1.6970625 0.45543 -2.4941625 0.7581262499999999 -1.3146 2.15209125 -2.3514375000000003 4.1379600000000005 -3.17265 0.821175 -0.3396 1.7534625000000001 -0.6461625 2.798025 -0.920925 -0.0372 -0.091125 -0.0666 -0.1869 -0.0871875 -0.286725Z" stroke-width="0.375"></path>
  <path fill="#ff4154" d="M26.4883875 24.428175000000003c0.2673 -0.0473625 0.5233875 0.1240125 0.5830875 0.38688750000000005l0.0032624999999999998 0.0155625 0.028499999999999998 0.1479375c0.9238875 4.8574125 0.27307499999999996 7.286137500000001 -1.9525124999999999 7.286137500000001 -2.1774750000000003 0 -4.9494 -2.0724 -8.315737500000001 -6.217275 -0.0744 -0.091575 -0.114525 -0.20621250000000002 -0.11351250000000002 -0.3241875 0.0024375 -0.2748375 0.222975 -0.4966875 0.4958625 -0.50265l0.0157875 -0.00007500000000000001 0.1772625 0.0012374999999999999c1.4166 0.0076875 2.7937125000000003 -0.0417 4.131375 -0.1481625 1.57905 -0.1256625 3.227925 -0.3408 4.946625 -0.6454125000000001Zm-15.284325 -3.6717375 0.008512500000000001 0.0144 0.08895 0.15525c0.7128375 1.2392625 1.4555250000000002 2.4154875000000002 2.2280249999999997 3.5286750000000002 0.9097875 1.3109625 1.9328625000000001 2.6380875 3.0692625 3.9813750000000003 0.1758 0.207825 0.1557 0.5162625000000001 -0.0426 0.6997125l-0.0129 0.011550000000000001 -0.114375 0.09840000000000002c-3.7599 3.2216625000000003 -6.2036625 3.8647875000000003 -7.3313625 1.92945 -1.1038124999999999 -1.8943875000000001 -0.7036125 -5.33895 1.2006000000000001 -10.33365 0.04185 -0.10976250000000001 0.1204875 -0.2016 0.2224875 -0.2598 0.238425 -0.1360875 0.5407124999999999 -0.05752500000000001 0.6834 0.1746375ZM28.39635 13.588875000000002l0.015412499999999999 0.005025 0.141525 0.0488625C33.19425 15.257175 34.957499999999996 17.031375 33.8429625 18.965325c-1.09005 1.891425 -4.2589125 3.2685750000000002 -9.506625 4.1314125 -0.11703749999999999 0.019237499999999998 -0.2371125 -0.00315 -0.3393375 -0.0632625 -0.24146250000000002 -0.1419375 -0.3221625 -0.45277500000000004 -0.1801875 -0.694275 0.7516125 -1.2785250000000001 1.4285625 -2.550675 2.0308124999999997 -3.8164124999999998 0.6830624999999999 -1.4355375000000001 1.3240500000000002 -2.976375 1.923 -4.6225125 0.090825 -0.2496 0.3575625 -0.38516249999999996 0.610275 -0.3159l0.01545 0.0045000000000000005Zm-16.393575 -0.8128124999999999c0.24146250000000002 0.1419375 0.3221625 0.45277500000000004 0.1801875 0.694275 -0.7516125 1.2785250000000001 -1.4285625 2.550675 -2.0308124999999997 3.8164499999999997 -0.6830624999999999 1.4355 -1.3240500000000002 2.9763374999999996 -1.923 4.6225125 -0.0926625 0.2546625 -0.36855 0.39060000000000006 -0.6257250000000001 0.3113625l-0.015412499999999999 -0.005025 -0.141525 -0.0488625C2.80551 20.5523625 1.04227875 18.7781625 2.15680125 16.84425c1.09003875 -1.8914624999999998 4.25892375 -3.2686125 9.50663625 -4.13145 0.11703749999999999 -0.019237499999999998 0.23707499999999998 0.00315 0.3393375 0.0632625Zm14.899425 -7.951575c1.1038124999999999 1.8943875000000001 0.7036125 5.33895 -1.2006000000000001 10.33365 -0.04185 0.10976250000000001 -0.1204875 0.2016 -0.2224875 0.2598375 -0.238425 0.13605 -0.5407124999999999 0.0574875 -0.6834 -0.174675l-0.008512500000000001 -0.0144 -0.08895 -0.15525c-0.7128375 -1.2392625 -1.4555250000000002 -2.4154875000000002 -2.2280249999999997 -3.5286750000000002 -0.9097875 -1.3109250000000001 -1.9328625000000001 -2.6380875 -3.0692625 -3.9813750000000003 -0.1758 -0.207825 -0.1557375 -0.5162625000000001 0.0426 -0.6997125l0.0129 -0.011550000000000001 0.11433750000000001 -0.09840000000000002C23.3307 3.53229375 25.7745 2.88915 26.9022 4.8244875ZM11.0392125 3.6716325c2.1775125 0 4.9494375 2.07243 8.315775 6.2172675 0.0744 0.091575 0.114525 0.20621250000000002 0.11351250000000002 0.3241875 -0.0024375 0.2748375 -0.222975 0.4966875 -0.4958625 0.50265l-0.0157875 0.0001125 -0.1772625 -0.0012749999999999999c-1.4166 -0.0076875 -2.7937125000000003 0.0417 -4.131375 0.1481625 -1.57905 0.1257 -3.227925 0.3408375 -4.946625 0.6454125000000001 -0.2673 0.0473625 -0.523425 -0.123975 -0.5830875 -0.38685l-0.0032624999999999998 -0.0156 -0.028499999999999998 -0.1479375c-0.923925 -4.8574125 -0.27307499999999996 -7.28613 1.952475 -7.28613Z" stroke-width="0.375"></path>
  <path fill="#ffd94c" d="M15.6996 12.357600000000001h4.3478625c0.63585 0 1.2231375 0.3400875 1.5396375 0.8915625l2.1831 3.8039625c0.3140625 0.5472375 0.3140625 1.2200250000000001 0 1.767225l-2.1831 3.8039625c-0.3165 0.5514749999999999 -0.9037875 0.8915625 -1.5396375 0.8915625H15.6996c-0.63585 0 -1.2231375 -0.3400875 -1.5396375 -0.8915625l-2.1831375 -3.8039625c-0.314025 -0.5472 -0.314025 -1.2199875 0 -1.767225l2.1831375 -3.8039625c0.3165 -0.5514749999999999 0.9037875 -0.8915625 1.5396375 -0.8915625Zm3.6852 1.1481375c0.6361874999999999 0 1.2237375 0.34042500000000003 1.5400875000000003 0.8923875000000001l1.5223499999999999 2.655825c0.313425 0.5467875 0.313425 1.2187875000000001 0 1.765575l-1.5223499999999999 2.6558625c-0.31635 0.551925 -0.9039 0.8923875000000001 -1.5400875000000003 0.8923875000000001h-3.022575c-0.6361874999999999 0 -1.2237 -0.3404625 -1.5400875000000003 -0.8923875000000001l-1.5223499999999999 -2.6558625c-0.313425 -0.5467875 -0.313425 -1.2187875000000001 0 -1.765575l1.5223499999999999 -2.655825c0.3163875 -0.5519625 0.9039 -0.8923875000000001 1.5400875000000003 -0.8923875000000001h3.022575Zm-0.7142625 1.255725h-1.59405c-0.6355500000000001 0 -1.222575 0.33975 -1.5392249999999998 0.8908125l-0.80445 1.4001000000000001c-0.314625 0.5476125 -0.314625 1.2211500000000002 0 1.7687625000000002l0.80445 1.4000625c0.31665 0.5510625 0.903675 0.8908125 1.5392249999999998 0.8908125h1.59405c0.6355500000000001 0 1.2226124999999999 -0.33975 1.5392249999999998 -0.8908125l0.80445 -1.4000625c0.314625 -0.5476125 0.314625 -1.2211500000000002 0 -1.7687625000000002l-0.80445 -1.4001000000000001c-0.3166125 -0.5510625 -0.903675 -0.8908125 -1.5392249999999998 -0.8908125Zm-0.6877125000000001 1.20195c0.6350625 0 1.2217500000000001 0.33926249999999997 1.5385125 0.8896499999999999l0.11407500000000001 0.19815c0.315525 0.548175 0.315525 1.2228750000000002 0 1.7710500000000002l-0.11407500000000001 0.19815c-0.3167625 0.5504249999999999 -0.9034499999999999 0.8896499999999999 -1.5385125 0.8896499999999999h-0.21862499999999999c-0.6350625 0 -1.2217125 -0.339225 -1.5385125 -0.8896499999999999l-0.11407500000000001 -0.19815c-0.315525 -0.548175 -0.315525 -1.2228750000000002 0 -1.7710500000000002l0.11407500000000001 -0.19815c0.31679999999999997 -0.5503875 0.9034499999999999 -0.8896499999999999 1.5385125 -0.8896499999999999h0.21862499999999999Zm-0.10901250000000001 1.1839875000000002c-0.282675 0 -0.5433375 0.15045 -0.68445 0.39468749999999997 -0.1411125 0.2441625 -0.1411125 0.5451375 0 0.7893375 0.1411125 0.2442 0.401775 0.39465 0.6838500000000001 0.39465 0.282675 0 0.5433375 -0.15045 0.68445 -0.39465 0.1411125 -0.2442 0.1411125 -0.545175 0 -0.7893375 -0.1411125 -0.2442375 -0.401775 -0.39468749999999997 -0.6838500000000001 -0.39468749999999997Zm-6.4041 0.7893375h1.4211375Z" stroke-width="0.375"></path>
</svg>