<svg xmlns="http://www.w3.org/2000/svg" fill="none" viewBox="0 0 36 36" id="Redux--Streamline-Svg-Logos" height="36" width="36">
  <desc>
    Redux Streamline Icon: https://streamlinehq.com
  </desc>
  <path fill="#764abc" d="M24.7995375 24.6390375c1.3008375 -0.1345875 2.2876875 -1.2560250000000002 2.2428375000000003 -2.6017875000000004 -0.04485 -1.3457625 -1.1662875000000001 -2.4223875 -2.511975 -2.4223875h-0.0897375c-1.3905750000000001 0.04485 -2.467125 1.211175 -2.422275 2.601825 0.04485 0.6728625 0.31398750000000003 1.2560250000000002 0.7177125 1.65975 -1.525125 3.0055499999999995 -3.8577000000000004 5.2036125 -7.3565625 7.042837499999999 -2.377425 1.2560250000000002 -4.8445875 1.7046375 -7.3117125000000005 1.3906125 -2.0185875 -0.26913750000000003 -3.5885625 -1.166325 -4.57542375 -2.646675 -1.43542875 -2.1980625000000003 -1.5700012500000002 -4.5755625 -0.35885625 -6.953099999999999 0.8522925 -1.7046375 2.19798 -2.9606625 3.0502800000000003 -3.5887125 -0.1794375 -0.5831625 -0.44857499999999995 -1.57005 -0.583125 -2.2877625C-0.9035962500000001 21.5437875 -0.23074012500000002 27.913725 1.74297375 30.919275000000003c1.4802825 2.2429125 4.48570125 3.6335625 7.805126249999999 3.6335625 0.8971499999999999 0 1.7942999999999998 -0.0897375 2.69145 -0.314025C17.981250000000003 33.1173375 22.332375 29.708099999999998 24.7995375 24.6390375ZM32.694375 19.07655c-3.4091249999999995 -3.9924 -8.43315 -6.1905 -14.17485 -6.1905h-0.7177125c-0.403725 -0.80745 -1.2559875 -1.3457625 -2.1979875 -1.3457625h-0.0897375c-1.3905375 0.04485 -2.467125 1.211175 -2.422275 2.601825 0.04485 1.3457625 1.1662875000000001 2.42235 2.5120125 2.42235h0.0897c0.98685 -0.04485 1.83915 -0.6728625 2.198025 -1.5252h0.8074124999999999c3.4091249999999995 0 6.638850000000001 0.9868874999999999 9.554549999999999 2.9158125 2.2428749999999997 1.48035 3.8577375 3.409275 4.75485 5.741925 0.7626 1.8840750000000002 0.7177125 3.7233 -0.0897 5.29335 -1.2559875 2.3775 -3.3642749999999997 3.6784125000000003 -6.1454249999999995 3.6784125000000003 -1.7942999999999998 0 -3.4988624999999995 -0.5383125 -4.396012499999999 -0.9420375000000001 -0.493425 0.44857499999999995 -1.3905375 1.166325 -2.01855 1.6149 1.9288500000000002 0.8971875 3.90255 1.39065 5.78655 1.39065 4.3063125 0 7.491150000000001 -2.3775375 8.7022875 -4.7550375 1.300875 -2.601825 1.2111375 -7.0876875 -2.1531374999999997 -10.9006875ZM9.906975000000001 25.4016375c0.04485 1.3457625 1.1662875000000001 2.4223875 2.511975 2.4223875h0.0897375c1.3905750000000001 -0.04485 2.467125 -1.2112125 2.422275 -2.601825 -0.04485 -1.3457625 -1.1662875000000001 -2.42235 -2.5120125 -2.42235h-0.0897c-0.0897 0 -0.22428749999999997 0 -0.31398750000000003 0.04485 -1.83915 -3.0504 -2.6017125 -6.3699375 -2.3325750000000003 -9.95865 0.1794375 -2.691525 1.0765500000000001 -5.024175 2.6465625 -6.953099999999999 1.3008375 -1.6597875 3.81285 -2.46723375 5.517412500000001 -2.51209125C22.6015125 3.3311399999999995 24.6201 9.2524875 24.754649999999998 11.630025c0.5831625 0.13455 1.5700125 0.44857499999999995 2.2428749999999997 0.6728625C26.459250000000004 5.0357625 21.9735375 1.2676387500000001 17.6672625 1.2676387500000001c-4.0371375 0 -7.7602875 2.91582375 -9.2405625 7.222248749999999 -2.0634375 5.741925 -0.71775 11.259562500000001 1.7942624999999999 15.6108375 -0.22428749999999997 0.314025 -0.3588375 0.8074875000000001 -0.31398750000000003 1.3009125Z" stroke-width="0.375"></path>
</svg>