<svg xmlns="http://www.w3.org/2000/svg" fill="none" viewBox="0 0 36 36" id="Vitest--Streamline-Svg-Logos" height="36" width="36">
  <desc>
    Vitest Streamline Icon: https://streamlinehq.com
  </desc>
  <path fill="#fcc72b" d="M26.8281 11.6715 18.4010625 23.85585c-0.089325 0.12918749999999998 -0.21855 0.225975 -0.36802500000000005 0.275625 -0.149475 0.0496875 -0.3110625 0.04920000000000001 -0.4602375 -0.000675 -0.1491375 -0.0501375 -0.2777625 -0.1474125 -0.3663375 -0.276825 -0.0885375 -0.12963750000000002 -0.132225 -0.28447500000000003 -0.1243125 -0.4409625l0.33723749999999997 -6.727012500000001 -5.4447375 -1.1547375c-0.11636250000000001 -0.0246375 -0.224775 -0.0775125 -0.315675 -0.1538625 -0.0908625 -0.07635 -0.1614 -0.1738875 -0.20534999999999998 -0.2839125 -0.0439125 -0.1100625 -0.0598875 -0.2292 -0.0465 -0.34695 0.0133875 -0.1177125 0.0556875 -0.2304 0.123225 -0.32801250000000004L19.9575 2.23412625c0.08936250000000001 -0.12925875 0.21855 -0.22600874999999998 0.36802500000000005 -0.27560999999999997 0.1495125 -0.049597499999999996 0.3111 -0.0493425 0.460275 0.0007687500000000001 0.149175 0.0500925 0.2778 0.147285 0.3663375 0.27684375 0.0885375 0.12954000000000002 0.132225 0.28435499999999997 0.1243125 0.44096625l-0.337275 6.7271175 5.4447 1.1545874999999999c0.11636250000000001 0.024675 0.224775 0.0775125 0.31575 0.1538625 0.0909375 0.0763875 0.16136250000000002 0.1738875 0.2052 0.28395 0.0440625 0.110025 0.059925 0.2292 0.04665 0.3469125 -0.013312499999999998 0.11775 -0.0557625 0.230325 -0.12337500000000001 0.327975Z" stroke-width="0.375"></path>
  <path fill="#729b1b" d="M18.003262499999998 34.0782c-0.2241375 0.000225 -0.4461 -0.0436125 -0.6531750000000001 -0.12945 -0.207075 -0.0858 -0.39517500000000005 -0.211725 -0.5534250000000001 -0.37031250000000004L8.834025 25.6164c-0.318525 -0.320175 -0.49706249999999996 -0.7536749999999999 -0.49650000000000005 -1.2053625000000001 0.0006000000000000001 -0.45168749999999996 0.18030000000000002 -0.8849625000000001 0.499725 -1.2042 0.3193875 -0.3194625 0.752475 -0.49927499999999997 1.2041625 -0.49995 0.45176250000000007 -0.0004875 0.8853 0.1779375 1.2055875 0.49646250000000003l6.7562625 6.7555125 14.7186375 -14.7178875c0.32085 -0.3157125 0.7534125 -0.49181250000000004 1.2034875 -0.489975 0.45030000000000003 0.0018375 0.8814374999999999 0.1814625 1.1995125 0.499725 0.3183 0.3183 0.4981125 0.749475 0.4999875 1.1995875 0.0016125 0.45011249999999997 -0.17445 0.88275 -0.49019999999999997 1.2036L19.209600000000002 33.5784375c-0.15825 0.1588125 -0.3463125 0.2845125 -0.5533125 0.37031250000000004 -0.20700000000000002 0.0858375 -0.428925 0.12967499999999998 -0.653025 0.12945Z" stroke-width="0.375"></path>
  <path fill="#729b1b" fill-opacity=".5" d="M17.996512499999998 34.0782c0.2241375 0.000225 0.44613749999999996 -0.0436125 0.6532125 -0.12945 0.207075 -0.0858 0.39513750000000003 -0.211725 0.5534250000000001 -0.37031250000000004L27.165749999999996 25.6164c0.3185625 -0.320175 0.49717500000000003 -0.7536749999999999 0.49646250000000003 -1.2053625000000001 -0.00045 -0.45168749999999996 -0.1802625 -0.8849625000000001 -0.499725 -1.2042 -0.3194625 -0.3194625 -0.7525124999999999 -0.49927499999999997 -1.2042 -0.49995 -0.45168749999999996 -0.0004875 -0.8851875 0.1779375 -1.2055875 0.49646250000000003L17.996512499999998 29.9588625 3.2779350000000003 15.240975c-0.32086875000000004 -0.3157125 -0.75348375 -0.49181250000000004 -1.20358875 -0.489975 -0.4501275 0.0018375 -0.88129875 0.1814625 -1.19957625 0.499725 -0.31828875 0.3183 -0.49791 0.749475 -0.49975500000000006 1.1995875 -0.0018198749999999999 0.45011249999999997 0.174285 0.88275 0.48997124999999997 1.2036L16.790175 33.5784375c0.1582875 0.1588125 0.3463125 0.2845125 0.5533125 0.37031250000000004 0.2070375 0.0858375 0.42896249999999997 0.12967499999999998 0.653025 0.12945Z" stroke-width="0.375"></path>
</svg>